<?xml version="1.0" encoding="UTF-8"?>
<svg id="_レイヤー_1" data-name="レイヤー_1" xmlns="http://www.w3.org/2000/svg" viewBox="0 0 41.36 49.53">
  <defs>
    <style>
      .cls-1 {
        fill: #fff;
      }
    </style>
  </defs>
  <path class="cls-1" d="M41.36,9.07c0-.85-.14-1.69-.45-2.48-.23-.59-.55-1.14-.97-1.63-.63-.74-1.47-1.33-2.47-1.72-1-.39-2.16-.59-3.47-.59v2.57c.93,0,1.7.13,2.31.33.92.31,1.49.78,1.88,1.36.39.58.6,1.3.6,2.16,0,1.12-.37,2.45-1.12,3.76-.5.87-1.19,1.94-1.98,3.1l-.61-.41h0c-1.53,2.26-3.44,4.86-5.04,7.02-.8,1.08-1.52,2.04-2.08,2.81-.28.38-.52.71-.72.99-.1.14-.19.26-.26.37-.08.11-.14.21-.21.32-.08.14-.24.34-.44.53-.31.3-.73.61-1.23.82-.5.22-1.08.36-1.75.36-.89,0-1.63-.25-2.22-.61-.3-.18-.55-.38-.76-.58-.21-.2-.36-.4-.44-.53-.07-.11-.13-.21-.21-.32-.15-.21-.32-.46-.54-.77-.77-1.05-2.02-2.72-3.41-4.6-1.38-1.88-2.89-3.97-4.15-5.82l-.61.41c-.79-1.16-1.48-2.24-1.98-3.1-.75-1.3-1.12-2.64-1.12-3.76,0-.57.09-1.09.27-1.54.13-.34.31-.64.54-.9.34-.4.8-.74,1.45-1,.64-.25,1.48-.42,2.53-.42v-2.57c-1.17,0-2.21.16-3.13.47-1.38.46-2.48,1.29-3.2,2.36-.71,1.06-1.03,2.32-1.03,3.6,0,1.67.53,3.41,1.46,5.04.55.96,1.27,2.07,2.08,3.27l-.61.41c1.6,2.35,3.53,4.98,5.13,7.15.8,1.08,1.52,2.05,2.08,2.8.28.37.51.69.69.94.09.12.16.23.22.31.05.08.09.14.1.15.28.46.64.9,1.06,1.31.64.62,1.45,1.2,2.43,1.63.42.19.88.34,1.36.46v7.7c0,.7-.15,1.36-.44,1.98-.42.92-1.16,1.74-2.11,2.33-.95.59-2.11.94-3.38.94-1.7,0-3.2-.63-4.26-1.6-.53-.49-.95-1.05-1.23-1.67-.28-.61-.44-1.27-.44-1.98v-.04c1.18-.35,2.24-.99,3.09-1.84,1.33-1.33,2.15-3.17,2.15-5.2,0-2.03-.82-3.87-2.15-5.2-1.33-1.33-3.17-2.16-5.2-2.15-2.03,0-3.87.83-5.2,2.15C.83,29.28,0,31.13,0,33.16c0,2.02.83,3.87,2.15,5.2.89.89,2.01,1.54,3.26,1.89,0,1.3.29,2.56.81,3.68.78,1.69,2.07,3.09,3.65,4.07,1.59.98,3.49,1.54,5.51,1.54,2.7,0,5.17-1,6.99-2.66.91-.83,1.65-1.83,2.17-2.95.52-1.12.81-2.38.81-3.68v-7.7c.85-.21,1.62-.54,2.28-.93.58-.35,1.08-.74,1.5-1.15.43-.42.78-.85,1.06-1.31,0,0,.05-.07.1-.15.1-.15.27-.39.48-.67.74-1.01,2-2.69,3.39-4.59,1.4-1.9,2.93-4.02,4.24-5.94l-.61-.41c.81-1.19,1.53-2.31,2.08-3.27.94-1.63,1.46-3.37,1.46-5.04ZM7.35,38.3c-1.43,0-2.7-.58-3.64-1.51-.93-.93-1.51-2.22-1.51-3.64s.57-2.71,1.51-3.64c.93-.93,2.21-1.5,3.64-1.51,1.42,0,2.7.58,3.64,1.51.93.94,1.51,2.22,1.51,3.64,0,1.42-.57,2.7-1.51,3.64-.93.93-2.21,1.51-3.64,1.51Z"/>
  <path class="cls-1" d="M18.44,7.67c.38-.26.6-.7.6-1.16V1.41c0-.46-.23-.89-.6-1.16-.38-.27-.86-.33-1.3-.17l-3.09,1.13v5.48l3.09,1.13c.43.16.92.1,1.3-.17Z"/>
  <path class="cls-1" d="M28.27,7.67c.38.26.86.33,1.3.17l3.09-1.13V1.22L29.57.09c-.43-.16-.92-.1-1.3.17-.38.26-.6.7-.6,1.16v5.09c0,.46.23.9.6,1.16Z"/>
  <path class="cls-1" d="M7.35,30.37c-1.54,0-2.78,1.25-2.78,2.78s1.25,2.78,2.78,2.78,2.78-1.25,2.78-2.78c0-1.54-1.25-2.78-2.78-2.78ZM8.54,34.34c-.31.31-.72.49-1.19.49-.47,0-.88-.19-1.19-.49-.3-.31-.49-.72-.49-1.19,0-.47.19-.88.49-1.19.31-.31.72-.49,1.19-.49.46,0,.88.19,1.19.49.31.3.49.72.49,1.19,0,.46-.19.88-.49,1.19Z"/>
</svg>